<svg width="170" height="49" viewBox="0 0 170 49" fill="none" xmlns="http://www.w3.org/2000/svg">
<path d="M3.99351e-06 48.128L0.448004 45.504H1.152C2.13334 45.504 3.02934 45.4187 3.84 45.248C4.65067 45.0773 5.33334 44.7787 5.888 44.352C6.44267 43.9253 6.784 43.3493 6.912 42.624L13.056 7.61599C13.184 6.97599 13.0347 6.50666 12.608 6.20799C12.1813 5.86665 11.584 5.63199 10.816 5.50399C10.048 5.37599 9.17334 5.31199 8.192 5.31199H7.488L8 2.68799H22.4L28.16 43.008L26.944 42.88L47.552 2.68799H61.888L61.376 5.31199H60.8C59.3067 5.31199 58.0267 5.46132 56.96 5.75999C55.8933 6.05865 55.2747 6.67732 55.104 7.61599L48.832 43.328C48.7467 43.8827 48.9173 44.3307 49.344 44.672C49.7707 44.9707 50.368 45.184 51.136 45.312C51.9467 45.44 52.8213 45.504 53.76 45.504H54.336L53.888 48.128H36.288L36.736 45.504H37.312C38.08 45.504 38.8693 45.4827 39.68 45.44C40.5333 45.3973 41.2587 45.3333 41.856 45.248C42.4533 45.12 42.752 44.992 42.752 44.864L49.984 3.58399L50.624 3.77599L27.52 48.256H23.872L16.64 3.71199H17.28L10.176 44.416C10.1333 44.672 10.3467 44.8853 10.816 45.056C11.328 45.2267 11.968 45.3547 12.736 45.44C13.504 45.4827 14.2507 45.504 14.976 45.504H15.552L15.104 48.128H3.99351e-06ZM75.832 48.832C73.272 48.832 70.968 48.2773 68.92 47.168C66.872 46.0587 65.2507 44.416 64.056 42.24C62.8613 40.0213 62.264 37.3333 62.264 34.176C62.264 31.7013 62.6693 29.312 63.48 27.008C64.3333 24.6613 65.528 22.5707 67.064 20.736C68.6427 18.9013 70.52 17.4507 72.696 16.384C74.9147 15.2747 77.368 14.72 80.056 14.72C82.1467 14.72 83.9387 15.0827 85.432 15.808C86.9253 16.4907 88.056 17.4293 88.824 18.624C89.592 19.8187 89.976 21.1413 89.976 22.592C89.976 24.4693 89.4213 26.112 88.312 27.52C87.2453 28.928 85.688 30.144 83.64 31.168C81.592 32.192 79.096 33.024 76.152 33.664C73.2507 34.304 69.9867 34.7733 66.36 35.072L66.872 32.32C70.1147 31.936 72.8667 31.488 75.128 30.976C77.3893 30.4213 79.2027 29.76 80.568 28.992C81.976 28.224 82.9787 27.3067 83.576 26.24C84.216 25.1307 84.536 23.8507 84.536 22.4C84.536 21.5467 84.344 20.7787 83.96 20.096C83.6187 19.3707 83.1067 18.816 82.424 18.432C81.7413 18.048 80.8453 17.856 79.736 17.856C78.1147 17.856 76.6 18.2827 75.192 19.136C73.784 19.9893 72.5467 21.184 71.48 22.72C70.4133 24.256 69.5813 26.0693 68.984 28.16C68.4293 30.208 68.152 32.448 68.152 34.88C68.152 37.184 68.472 39.1467 69.112 40.768C69.752 42.3893 70.6693 43.6267 71.864 44.48C73.1013 45.2907 74.5733 45.696 76.28 45.696C77.9013 45.696 79.3307 45.376 80.568 44.736C81.8053 44.0533 82.872 43.1787 83.768 42.112C84.7067 41.0027 85.4747 39.7867 86.072 38.464L88.632 40.384C87.7787 42.2613 86.6907 43.84 85.368 45.12C84.088 46.3573 82.6373 47.296 81.016 47.936C79.4373 48.5333 77.7093 48.832 75.832 48.832ZM96.696 43.328C96.696 42.9013 96.7173 42.4533 96.76 41.984C96.8453 41.5147 96.9307 40.96 97.016 40.32C97.144 39.68 97.272 38.9333 97.4 38.08L100.408 21.056C100.536 20.416 100.429 19.904 100.088 19.52C99.7893 19.136 99.2987 18.8373 98.616 18.624C97.9333 18.4107 97.08 18.24 96.056 18.112L95.16 17.984L95.672 15.36H107.064L102.84 39.36C102.755 40 102.669 40.576 102.584 41.088C102.499 41.6 102.435 42.048 102.392 42.432C102.349 42.7733 102.328 43.072 102.328 43.328C102.328 43.968 102.499 44.4587 102.84 44.8C103.224 45.0987 103.779 45.248 104.504 45.248C105.101 45.248 105.72 45.1627 106.36 44.992C107 44.7787 107.576 44.544 108.088 44.288C108.643 44.032 109.069 43.84 109.368 43.712L108.728 46.592C108.344 46.9333 107.832 47.2747 107.192 47.616C106.595 47.9147 105.912 48.1493 105.144 48.32C104.376 48.5333 103.565 48.64 102.712 48.64C101.56 48.64 100.515 48.448 99.576 48.064C98.68 47.68 97.976 47.104 97.464 46.336C96.952 45.5253 96.696 44.5227 96.696 43.328ZM101.304 3.83999C101.304 2.64532 101.667 1.70665 102.392 1.02399C103.16 0.341321 104.099 -1.14441e-05 105.208 -1.14441e-05C106.317 -1.14441e-05 107.235 0.341321 107.96 1.02399C108.728 1.70665 109.112 2.64532 109.112 3.83999C109.112 5.03466 108.728 5.99466 107.96 6.71999C107.235 7.40266 106.317 7.74399 105.208 7.74399C104.099 7.74399 103.16 7.40266 102.392 6.71999C101.667 5.99466 101.304 5.03466 101.304 3.83999ZM127.52 48.832C124.96 48.832 122.656 48.2773 120.608 47.168C118.56 46.0587 116.938 44.416 115.744 42.24C114.549 40.0213 113.952 37.3333 113.952 34.176C113.952 31.7013 114.357 29.312 115.168 27.008C116.021 24.6613 117.216 22.5707 118.752 20.736C120.33 18.9013 122.208 17.4507 124.384 16.384C126.602 15.2747 129.056 14.72 131.744 14.72C133.834 14.72 135.626 15.0827 137.12 15.808C138.613 16.4907 139.744 17.4293 140.512 18.624C141.28 19.8187 141.664 21.1413 141.664 22.592C141.664 24.4693 141.109 26.112 140 27.52C138.933 28.928 137.376 30.144 135.328 31.168C133.28 32.192 130.784 33.024 127.84 33.664C124.938 34.304 121.674 34.7733 118.048 35.072L118.56 32.32C121.802 31.936 124.554 31.488 126.816 30.976C129.077 30.4213 130.89 29.76 132.256 28.992C133.664 28.224 134.666 27.3067 135.264 26.24C135.904 25.1307 136.224 23.8507 136.224 22.4C136.224 21.5467 136.032 20.7787 135.648 20.096C135.306 19.3707 134.794 18.816 134.112 18.432C133.429 18.048 132.533 17.856 131.424 17.856C129.802 17.856 128.288 18.2827 126.88 19.136C125.472 19.9893 124.234 21.184 123.168 22.72C122.101 24.256 121.269 26.0693 120.672 28.16C120.117 30.208 119.84 32.448 119.84 34.88C119.84 37.184 120.16 39.1467 120.8 40.768C121.44 42.3893 122.357 43.6267 123.552 44.48C124.789 45.2907 126.261 45.696 127.968 45.696C129.589 45.696 131.018 45.376 132.256 44.736C133.493 44.0533 134.56 43.1787 135.456 42.112C136.394 41.0027 137.162 39.7867 137.76 38.464L140.32 40.384C139.466 42.2613 138.378 43.84 137.056 45.12C135.776 46.3573 134.325 47.296 132.704 47.936C131.125 48.5333 129.397 48.832 127.52 48.832ZM147.296 48.128L152.16 20.992C152.288 20.352 152.181 19.8613 151.84 19.52C151.541 19.136 151.05 18.8373 150.368 18.624C149.685 18.4107 148.81 18.24 147.744 18.112L146.976 17.984L147.36 15.36H158.176L156.576 24.896L157.024 24.96L152.992 48.128H147.296ZM169.248 15.168L168.288 20.544C167.861 20.3733 167.392 20.224 166.88 20.096C166.41 19.968 165.834 19.904 165.152 19.904C164.256 19.904 163.424 20.0747 162.656 20.416C161.888 20.7147 161.12 21.248 160.352 22.016C159.626 22.7413 158.858 23.7867 158.048 25.152C157.28 26.4747 156.448 28.16 155.552 30.208L154.4 28.544C155.338 26.3253 156.277 24.3627 157.216 22.656C158.197 20.9493 159.178 19.52 160.16 18.368C161.141 17.1733 162.186 16.2773 163.296 15.68C164.405 15.04 165.578 14.72 166.816 14.72C167.37 14.72 167.84 14.7627 168.224 14.848C168.65 14.9333 168.992 15.04 169.248 15.168Z" fill="black"/>
</svg>
